<svg  xmlns="http://www.w3.org/2000/svg" xmlns:xlink="http://www.w3.org/1999/xlink" version="1.1" width="256" height="256" viewBox="0 0 256 256" xmlSpace="preserve">

<defs>
</defs>
<g  style="stroke: none; stroke-width: 0; stroke-dasharray: none; stroke-linecap: butt; stroke-linejoin: miter; stroke-miterlimit: 10; fill: none; fill-rule: nonzero; opacity: 1;" transform="translate(1.4065934065934016 1.4065934065934016) scale(2.81 2.81)" >
	<path  d="M 89 70.017 h -3.487 v -2.916 c 0 -2.396 -1.95 -4.347 -4.347 -4.347 H 51.117 c -2.396 0 -4.347 1.95 -4.347 4.347 v 2.916 h -3.496 c -0.552 0 -1 0.447 -1 1 v 7.263 c 0 0.553 0.448 1 1 1 H 89 c 0.553 0 1 -0.447 1 -1 v -7.263 C 90 70.464 89.553 70.017 89 70.017 z M 48.771 67.101 c 0 -1.294 1.053 -2.347 2.347 -2.347 h 30.049 c 1.294 0 2.347 1.053 2.347 2.347 v 2.916 H 48.771 V 67.101 z M 88 77.279 H 44.274 v -5.263 h 3.496 h 36.742 H 88 V 77.279 z" style="stroke: none; stroke-width: 1; stroke-dasharray: none; stroke-linecap: butt; stroke-linejoin: miter; stroke-miterlimit: 10; fill: #FFF; fill-rule: nonzero; opacity: 1;" transform=" matrix(1 0 0 1 0 0) " strokeLinecap="round" />
	<path  d="M 71.557 30.29 L 56.091 7.546 c 1.286 -1.538 1.475 -3.793 0.293 -5.531 c -1.428 -2.1 -4.297 -2.646 -6.396 -1.219 l -13.592 9.242 c -2.099 1.427 -2.645 4.297 -1.218 6.396 c 1.182 1.738 3.349 2.391 5.252 1.761 l 3.388 4.983 c 0.96 1.411 0.592 3.34 -0.819 4.299 L 10.891 49.31 c -2.457 -0.931 -5.172 -0.617 -7.368 0.876 c -1.995 1.357 -3.267 3.514 -3.489 5.918 c -0.222 2.404 0.649 4.774 2.391 6.504 c 2.341 2.324 5.933 2.956 8.939 1.574 c 2.875 -1.325 4.687 -4.112 4.734 -7.213 l 32.109 -21.833 c 1.411 -0.959 3.34 -0.592 4.299 0.819 l 3.388 4.983 c -1.286 1.538 -1.475 3.793 -0.293 5.532 c 1.427 2.099 4.297 2.645 6.395 1.218 l 13.592 -9.242 c 2.099 -1.427 2.645 -4.297 1.218 -6.395 C 75.627 30.313 73.46 29.66 71.557 30.29 z M 36.833 15.309 c -0.807 -1.188 -0.499 -2.81 0.688 -3.618 l 13.592 -9.242 c 1.187 -0.807 2.81 -0.498 3.617 0.69 s 0.498 2.81 -0.689 3.617 L 40.45 15.998 C 39.263 16.805 37.64 16.496 36.833 15.309 z M 47.083 33.482 L 14.519 55.625 c -0.319 0.217 -0.478 0.595 -0.424 0.967 c 0.1 2.467 -1.294 4.728 -3.566 5.772 c -2.217 1.02 -4.97 0.536 -6.695 -1.176 c -1.316 -1.307 -1.976 -3.093 -1.808 -4.9 c 0.167 -1.808 1.124 -3.429 2.623 -4.449 c 1.736 -1.181 3.906 -1.38 5.826 -0.541 c 0.325 0.2 0.75 0.203 1.086 -0.025 l 32.564 -22.143 c 2.323 -1.58 2.928 -4.755 1.348 -7.078 l -3.279 -4.822 l 12.353 -8.4 l 15.246 22.422 l -12.353 8.4 l -3.279 -4.822 C 52.582 32.508 49.407 31.903 47.083 33.482 z M 74.466 36.793 l -13.592 9.242 c -1.187 0.807 -2.81 0.498 -3.617 -0.689 c -0.808 -1.188 -0.499 -2.81 0.688 -3.618 l 13.592 -9.242 c 1.187 -0.807 2.81 -0.498 3.617 0.69 C 75.962 34.363 75.653 35.986 74.466 36.793 z" style="stroke: none; stroke-width: 1; stroke-dasharray: none; stroke-linecap: butt; stroke-linejoin: miter; stroke-miterlimit: 10; fill: #FFF; fill-rule: nonzero; opacity: 1;" transform=" matrix(1 0 0 1 0 0) " strokeLinecap="round" />
</g>
</svg>
